<svg id="visual" viewBox="0 0 540 960" width="540" height="960" xmlns="http://www.w3.org/2000/svg" xmlns:xlink="http://www.w3.org/1999/xlink" version="1.1"><rect x="0" y="0" width="540" height="960" fill="#191919"></rect><defs><linearGradient id="grad1_0" x1="0%" y1="100%" x2="100%" y2="0%"><stop offset="30%" stop-color="#191919" stop-opacity="1"></stop><stop offset="70%" stop-color="#191919" stop-opacity="1"></stop></linearGradient></defs><defs><linearGradient id="grad2_0" x1="0%" y1="100%" x2="100%" y2="0%"><stop offset="30%" stop-color="#191919" stop-opacity="1"></stop><stop offset="70%" stop-color="#191919" stop-opacity="1"></stop></linearGradient></defs><g transform="translate(540, 960)"><path d="M-197 0C-200.2 -22.6 -203.5 -45.2 -195.9 -63.7C-188.3 -82.1 -169.9 -96.5 -156.9 -114C-144 -131.5 -136.4 -152.1 -122.3 -168.3C-108.2 -184.5 -87.6 -196.3 -66.1 -203.5C-44.7 -210.8 -22.3 -213.4 0 -216L0 0Z" fill="#41b883"></path></g><g transform="translate(0, 0)"><path d="M202 0C199.3 20.7 196.7 41.3 191.2 62.1C185.7 82.9 177.3 103.8 164.2 119.3C151.1 134.8 133.3 145 117 161C100.7 177 86 198.8 66.7 205.4C47.5 212.1 23.8 203.5 0 195L0 0Z" fill="#41b883"></path></g></svg>